<svg width="64" height="64" viewBox="0 0 64 64" fill="none" xmlns="http://www.w3.org/2000/svg">
  <rect width="64" height="64" rx="18" fill="#FFF7FA"/>
  <circle cx="32" cy="32" r="23" fill="url(#paint0_linear)"/>
  <path d="M44.5 29.1C43.4 21.9 38 17.5 31.8 17.5C24.2 17.5 18 23.5 18 32C18 40.5 24.2 46.5 31.8 46.5C37.9 46.5 43.3 42.2 44.5 35.1H38.1C37.2 38.5 34.9 40.5 31.7 40.5C27.5 40.5 24.5 37.1 24.5 32C24.5 26.9 27.5 23.5 31.7 23.5C34.9 23.5 37.2 25.5 38.1 29.1H44.5Z" fill="white"/>
  <path d="M46 45L53 52" stroke="#F7C948" stroke-width="4" stroke-linecap="round"/>
  <defs>
    <linearGradient id="paint0_linear" x1="9" y1="8" x2="55" y2="56" gradientUnits="userSpaceOnUse">
      <stop stop-color="#E83074"/>
      <stop offset="1" stop-color="#ED765E"/>
    </linearGradient>
  </defs>
</svg>
